<svg width="20" height="13" viewBox="0 0 20 13" fill="none" xmlns="http://www.w3.org/2000/svg">
<path d="M10 0.00012207C12.0683 0.00012207 14.0293 0.569348 15.7366 1.62319C17.4439 2.66933 18.8976 4.20009 19.9415 6.11545C20.0195 6.26161 20.0195 6.43084 19.9415 6.5693C17.8537 10.4 14.1366 12.6923 10 12.6923H9.99024C5.86341 12.6923 2.14634 10.4 0.0585366 6.5693C-0.0195122 6.43084 -0.0195122 6.26161 0.0585366 6.11545C2.14634 2.28472 5.86341 0.00012207 9.99024 0.00012207H10ZM10 3.26933C7.8439 3.26933 6.09756 4.64624 6.09756 6.34622C6.09756 8.03852 7.8439 9.41543 10 9.41543C12.1463 9.41543 13.8927 8.03852 13.8927 6.34622C13.8927 4.64624 12.1463 3.26933 10 3.26933ZM10.0012 4.42147C11.3378 4.42147 12.4304 5.283 12.4304 6.34453C12.4304 7.39837 11.3378 8.2599 10.0012 8.2599C8.65483 8.2599 7.56215 7.39837 7.56215 6.34453C7.56215 6.21376 7.58166 6.09069 7.61093 5.96761H7.65971C8.74263 5.96761 9.62068 5.29069 9.65971 4.44455C9.76702 4.42916 9.8841 4.42147 10.0012 4.42147Z" fill="#CCCCCC"/>
</svg>
