<svg width="24" height="23" viewBox="0 0 24 23" fill="none" xmlns="http://www.w3.org/2000/svg">
<path d="M11.8964 2.16589C17.0459 2.16589 21.2395 6.35744 21.2395 11.5144C21.2395 16.6605 17.0459 20.8521 11.8964 20.8521C6.74688 20.8521 2.55331 16.6605 2.55331 11.5144C2.55331 6.35744 6.74688 2.16589 11.8964 2.16589ZM10.8322 7.79969C10.6338 7.79969 10.4444 7.84476 10.2641 7.9349C10.0386 8.0611 9.85824 8.25941 9.75904 8.49378C9.69591 8.65603 9.59671 9.14279 9.59671 9.15181C9.49751 9.68364 9.4434 10.549 9.4434 11.5045C9.4434 12.4158 9.49751 13.2442 9.57867 13.785C9.58769 13.7941 9.68689 14.398 9.79511 14.6053C9.99352 14.9839 10.3813 15.2183 10.7962 15.2183H10.8322C11.1028 15.2093 11.6709 14.9749 11.6709 14.9659C12.6269 14.5693 14.5118 13.3343 15.2693 12.5141L15.3234 12.46C15.4226 12.3608 15.5489 12.2076 15.5759 12.1715C15.7202 11.9822 15.7924 11.7479 15.7924 11.5144C15.7924 11.2521 15.7112 11.0087 15.5579 10.8104C15.5218 10.7743 15.3865 10.6211 15.2603 10.4949C14.5208 9.70166 12.5908 8.40364 11.5808 8.00702C11.4274 7.94482 11.0397 7.80871 10.8322 7.79969Z" fill="black"/>
</svg>
